<?xml version="1.0" encoding="utf-8"?>
<!-- License: MIT. Made by Gitlab: https://gitlab.com/gitlab-org/gitlab-svgs?ref=iconduck.com -->
<svg width="24" height="24" viewBox="0 0 24 24" xmlns="http://www.w3.org/2000/svg">
  <path fill-rule="evenodd" clip-rule="evenodd" d="M11.964 0A11.964 11.964 0 000 11.964c0 5.283 3.45 9.76 8.146 11.376.588.074.807-.294.807-.588v-2.055c-3.302.735-4.035-1.615-4.035-1.615-.515-1.395-1.321-1.763-1.321-1.763-1.101-.734.072-.734.072-.734 1.174.073 1.836 1.248 1.836 1.248 1.101 1.835 2.789 1.32 3.45 1.027.073-.807.44-1.32.734-1.615-2.643-.294-5.432-1.321-5.432-5.946 0-1.32.44-2.349 1.248-3.229-.074-.221-.515-1.467.147-3.083 0 0 1.027-.294 3.302 1.248.954-.294 1.983-.368 3.011-.368s2.055.147 3.009.368c2.275-1.541 3.302-1.248 3.302-1.248.66 1.616.22 2.862.146 3.156a4.74 4.74 0 011.248 3.229c0 4.625-2.789 5.579-5.43 5.872.44.367.807 1.1.807 2.2v3.302c0 .294.22.66.807.588A11.976 11.976 0 0024 11.964C23.926 5.358 18.57 0 11.964 0z" fill="#000000"/>
</svg>